<?xml version="1.0" standalone="no"?>
<!DOCTYPE svg PUBLIC "-//W3C//DTD SVG 20010904//EN"
 "http://www.w3.org/TR/2001/REC-SVG-20010904/DTD/svg10.dtd">
<svg version="1.0" xmlns="http://www.w3.org/2000/svg"
 width="700.000000pt" height="700.000000pt" viewBox="0 0 700.000000 700.000000"
 preserveAspectRatio="xMidYMid meet">
<metadata>
Created by potrace 1.11, written by Peter Selinger 2001-2013
</metadata>
<g transform="translate(0.000000,700.000000) scale(0.100000,-0.100000)"
fill="#000000" stroke="none">
<path d="M2933 6820 c-87 -10 -156 -31 -248 -78 -90 -46 -218 -171 -267 -262
-174 -315 -76 -695 230 -895 l42 -28 0 -521 0 -522 -57 -24 c-483 -195 -911
-596 -1153 -1079 -112 -224 -192 -496 -220 -746 -15 -133 -12 -387 5 -522 99
-760 581 -1423 1272 -1749 310 -147 613 -214 963 -214 370 0 689 76 1013 239
231 117 394 236 582 425 345 349 556 772 631 1271 23 152 23 452 0 609 -72
495 -289 931 -641 1281 -111 112 -282 247 -410 325 -38 24 -139 77 -223 117
l-152 74 2 516 3 517 58 39 c78 54 175 159 214 232 62 118 78 186 78 330 -1
119 -3 137 -31 216 -60 169 -179 306 -329 380 -151 74 -136 72 -745 75 -300 1
-577 -1 -617 -6z m1106 -350 c76 -13 128 -38 176 -85 139 -140 121 -384 -37
-493 -24 -16 -81 -40 -128 -54 l-85 -24 -3 -776 -2 -776 27 -10 c16 -5 71 -24
123 -42 178 -59 375 -163 530 -279 94 -70 254 -224 331 -317 242 -296 393
-680 418 -1064 18 -278 -22 -551 -115 -795 -31 -81 -39 -93 -68 -103 -18 -7
-45 -26 -62 -43 -27 -28 -29 -36 -29 -107 -1 -71 -3 -81 -35 -127 -142 -210
-325 -392 -530 -530 -75 -50 -85 -54 -93 -38 -18 33 -62 75 -101 95 -59 30
-151 22 -208 -17 -62 -44 -91 -105 -85 -180 2 -33 6 -66 8 -74 5 -17 -42 -34
-168 -60 -275 -56 -531 -56 -808 1 -55 11 -103 22 -107 24 -4 3 0 21 9 42 48
114 -38 255 -170 278 -82 13 -192 -47 -218 -121 -7 -19 -16 -35 -20 -35 -14 0
-193 119 -267 177 -92 73 -252 232 -318 318 -389 499 -506 1153 -313 1744 144
440 437 807 835 1046 119 71 291 148 427 189 l87 27 0 774 0 774 -72 21 c-101
28 -151 55 -199 107 -63 69 -84 123 -83 218 0 62 5 91 23 126 49 102 142 174
245 189 80 12 1012 11 1085 0z"/>
<path d="M4543 3460 c-91 -55 -81 -192 17 -243 40 -21 97 -18 135 7 83 54 83
187 1 237 -41 25 -112 25 -153 -1z"/>
<path d="M4280 3273 c-134 -70 -90 -263 60 -263 57 0 101 27 124 75 57 119
-69 248 -184 188z"/>
<path d="M3292 2587 c-166 -63 -193 -276 -46 -375 46 -32 53 -34 120 -30 93 4
141 34 179 113 36 72 31 147 -12 209 -52 74 -164 112 -241 83z"/>
<path d="M4926 2380 c-63 -19 -101 -79 -94 -151 l5 -47 -45 -5 c-169 -19 -232
-247 -99 -364 84 -74 202 -68 284 13 64 65 80 151 43 233 -11 24 -20 44 -20
46 0 1 13 8 29 14 25 11 33 9 66 -13 97 -66 225 -1 225 116 0 95 -115 167
-199 123 -30 -15 -35 -15 -50 -1 -20 18 -85 46 -103 45 -7 0 -26 -5 -42 -9z"/>
<path d="M2306 2316 c-167 -62 -183 -300 -26 -384 38 -20 56 -23 112 -20 57 3
73 8 105 34 102 83 122 201 50 296 -57 74 -157 105 -241 74z"/>
<path d="M3329 2067 c-159 -84 -136 -330 36 -387 120 -40 256 49 272 177 19
166 -159 288 -308 210z"/>
<path d="M3456 1280 c-138 -42 -123 -245 21 -275 41 -8 115 23 138 59 47 71
21 165 -55 204 -47 24 -59 25 -104 12z"/>
</g>
</svg>
