<?xml version="1.0" standalone="no"?>
<!DOCTYPE svg PUBLIC "-//W3C//DTD SVG 20010904//EN"
 "http://www.w3.org/TR/2001/REC-SVG-20010904/DTD/svg10.dtd">
<svg version="1.0" xmlns="http://www.w3.org/2000/svg"
 width="700.000000pt" height="700.000000pt" viewBox="0 0 700.000000 700.000000"
 preserveAspectRatio="xMidYMid meet">
<metadata>
Created by potrace 1.11, written by Peter Selinger 2001-2013
</metadata>
<g transform="translate(0.000000,700.000000) scale(0.100000,-0.100000)"
fill="#000000" stroke="none">
<path d="M3258 6575 c-2 -1 -34 -5 -73 -9 -106 -9 -212 -22 -245 -31 -3 0 -27
-5 -55 -9 -39 -6 -242 -55 -335 -81 -131 -35 -343 -123 -517 -212 -148 -75
-429 -251 -453 -283 -3 -3 -14 -13 -26 -21 -12 -8 -45 -34 -75 -59 -413 -347
-722 -767 -910 -1242 -66 -167 -140 -411 -163 -538 -2 -14 -9 -52 -15 -85 -53
-297 -61 -646 -21 -955 6 -47 13 -92 15 -100 3 -8 7 -31 9 -50 15 -111 76
-344 129 -491 169 -464 393 -815 747 -1169 201 -202 439 -382 667 -506 48 -26
102 -55 118 -64 189 -103 575 -234 815 -276 14 -2 48 -9 75 -14 28 -6 73 -13
100 -16 28 -3 61 -7 74 -9 39 -7 260 -18 346 -18 91 0 325 12 334 17 3 2 35 7
71 10 172 17 445 82 645 154 621 221 1156 634 1527 1177 175 256 286 481 388
788 52 155 108 398 125 542 4 28 8 57 10 65 2 8 7 60 11 115 16 210 7 526 -21
700 -96 615 -341 1152 -733 1602 l-80 92 -857 -853 -858 -852 2 -465 c2 -255
4 -648 5 -872 l3 -409 -84 84 c-46 46 -466 464 -934 931 l-850 847 78 0 c43 1
436 3 873 5 l795 3 852 853 851 852 -33 31 c-305 286 -720 530 -1140 671 -71
24 -342 92 -395 100 -25 3 -63 10 -85 15 -45 9 -121 19 -245 30 -77 7 -455 11
-462 5z m562 -799 c92 -14 190 -33 255 -49 100 -24 256 -75 269 -87 4 -5 -171
-187 -390 -405 l-398 -396 -260 5 c-144 4 -378 9 -521 13 -143 3 -377 6 -520
6 -248 1 -264 -1 -356 -25 -162 -44 -293 -121 -404 -240 -100 -107 -186 -283
-211 -429 -10 -58 -10 -221 0 -284 13 -90 64 -221 119 -310 41 -66 176 -205
1086 -1116 759 -758 1023 -1017 1077 -1052 224 -147 504 -179 756 -87 257 94
449 303 525 570 17 61 18 119 18 857 l0 793 385 385 c212 212 388 385 391 385
14 0 107 -331 125 -445 3 -22 12 -76 19 -120 12 -78 14 -509 2 -565 -3 -14
-11 -59 -17 -100 -63 -403 -265 -842 -525 -1140 -44 -51 -225 -231 -265 -265
-197 -167 -458 -319 -705 -410 -102 -38 -328 -99 -400 -108 -22 -3 -74 -11
-115 -18 -83 -14 -437 -18 -541 -7 -72 9 -98 13 -209 34 -114 22 -113 21 -142
33 -16 6 -28 9 -28 6 0 -13 -286 96 -405 155 -319 157 -627 406 -815 659 -14
19 -30 39 -35 45 -26 28 -195 298 -195 311 0 2 -20 45 -45 95 -104 213 -178
488 -210 785 -8 75 -8 343 0 410 42 351 109 583 245 850 149 293 364 561 603
753 40 31 74 60 77 63 4 4 94 65 164 111 220 144 603 288 861 324 22 3 51 7
65 10 14 2 54 7 90 10 36 4 67 8 68 9 12 10 423 -5 512 -19z"/>
</g>
</svg>
