<svg xmlns="http://www.w3.org/2000/svg" xmlns:xlink="http://www.w3.org/1999/xlink" version="1.1" x="0px" y="0px" viewBox="0 0 100 100" enable-background="new 0 0 100 100" xml:space="preserve">
  <path 
    fill-rule="evenodd"
    clip-rule="evenodd" 
    d="M57.682,69.346l-0.166-24.938L82.016,20.02  C98.44,37.467,98.123,65.098,81.06,82.16c-17.386,17.386-45.745,17.386-63.131,0c-17.386-17.386-17.386-45.745,0-63.131  C35.043,1.916,62.791,1.648,80.277,18.231L55.957,42.593L30.969,42.69L57.682,69.346L57.682,69.346z M69.605,70.136l-0.174-20.643  l11.153-11.169c4.683,12.001,2.213,26.247-7.45,35.91c-13.02,13.02-34.258,13.02-47.278,0c-13.02-13.02-13.02-34.258,0-47.278  c9.765-9.765,24.153-12.206,36.406-7.51L50.818,30.88l-19.795-0.44c-3.369-0.075-6.797,0.927-9.341,3.506  c-4.652,4.717-4.705,12.346-0.01,17.04L49.095,78.41c4.681,4.681,12.343,4.661,17.027-0.023  C68.464,76.045,69.629,72.963,69.605,70.136L69.605,70.136z"/>
</svg>