<?xml version="1.0" encoding="UTF-8"?>
<svg xmlns="http://www.w3.org/2000/svg" xmlns:xlink="http://www.w3.org/1999/xlink" viewBox="0 0 50 50" version="1.1" width="50px" height="50px">
<g id="surface1">
<path style=" " d="M 30.996094 2 C 21.289063 2.035156 13.320313 6.214844 9.132813 13.464844 C 6 18.890625 5.1875 25.453125 6.898438 31.46875 C 8.550781 37.273438 12.324219 42.003906 17.527344 44.792969 C 21.515625 46.933594 25.675781 47.996094 29.703125 47.996094 C 34.328125 47.996094 38.78125 46.59375 42.59375 43.808594 C 42.941406 43.554688 43.085938 43.101563 42.953125 42.691406 C 42.816406 42.28125 42.441406 42.003906 42.007813 42 C 35.117188 41.960938 26.992188 35.5625 25.242188 32.375 L 27.554688 30.832031 C 27.859375 30.628906 28.023438 30.273438 27.992188 29.910156 C 27.960938 29.546875 27.726563 29.226563 27.390625 29.078125 C 27.324219 29.050781 26.507813 28.683594 25.574219 27.796875 C 26.351563 26.972656 26.96875 25.289063 27 22.011719 C 27 22.007813 27 22.003906 27 22.003906 C 27 22.003906 27 22 27 22 C 27 21.925781 26.972656 21.863281 26.957031 21.792969 C 26.945313 21.734375 26.945313 21.671875 26.921875 21.621094 C 26.875 21.5 26.800781 21.386719 26.710938 21.296875 C 26.710938 21.296875 26.707031 21.296875 26.707031 21.296875 C 26.707031 21.296875 26.707031 21.292969 26.707031 21.292969 C 26.613281 21.199219 26.507813 21.128906 26.390625 21.078125 C 26.390625 21.078125 26.386719 21.078125 26.386719 21.078125 C 26.265625 21.027344 26.132813 21 26 21 L 23 21 L 23 20.996094 C 22.945313 12.40625 28.742188 5.722656 31.558594 3.828125 C 31.925781 3.585938 32.085938 3.128906 31.953125 2.707031 C 31.824219 2.285156 31.4375 2 31 2 Z M 28.148438 4.140625 C 24.945313 7.421875 20.964844 13.5625 21 21 L 12 21 C 11.449219 21 11 21.449219 11 22 C 11 22.550781 11.449219 23 12 23 L 15.050781 23 C 15.320313 27.371094 17.207031 29 19 29 C 19.625 29 21.203125 28.761719 22.183594 26.605469 C 23.089844 28.261719 24.238281 29.367188 25.140625 30.035156 L 23.441406 31.167969 C 23.082031 31.410156 22.917969 31.859375 23.035156 32.277344 C 23.101563 32.507813 23.207031 32.75 23.332031 33.007813 C 23.230469 33.007813 23.15625 33.007813 23.050781 33.011719 C 20.464844 33.042969 15.652344 33.097656 14.601563 32.273438 C 14.253906 32 13.765625 31.988281 13.40625 32.246094 C 13.042969 32.5 12.894531 32.964844 13.035156 33.382813 C 14.390625 37.339844 17.835938 38.609375 19.253906 38.96875 C 20.328125 39.242188 21.636719 39.332031 22.960938 39.332031 C 24.550781 39.332031 26.160156 39.203125 27.421875 39.101563 C 28.089844 39.046875 28.671875 39 28.960938 39 C 28.976563 39 28.988281 39 29 39 C 29.003906 39 29.011719 38.996094 29.015625 38.996094 C 31.886719 41.105469 35.457031 42.964844 39.035156 43.683594 C 32.910156 46.949219 25.417969 46.757813 18.472656 43.03125 C 13.753906 40.5 10.328125 36.199219 8.824219 30.921875 C 7.257813 25.421875 8 19.421875 10.863281 14.464844 C 14.273438 8.5625 20.476563 4.890625 28.148438 4.140625 Z M 17.03125 23 L 20.957031 23 C 20.78125 25.429688 20.03125 27 19 27 C 18.136719 27 17.21875 25.738281 17.03125 23 Z M 23.0625 23 L 24.96875 23 C 24.859375 24.921875 24.515625 25.804688 24.261719 26.203125 C 23.792969 25.476563 23.371094 24.59375 23.078125 23.519531 Z M 16.050781 34.769531 C 17.867188 35.039063 20.296875 35.042969 23.078125 35.011719 C 23.625 35.003906 24.140625 35 24.589844 35 C 24.617188 35 24.640625 34.996094 24.671875 35 C 25.246094 35.695313 25.9375 36.417969 26.738281 37.144531 C 24.667969 37.308594 21.632813 37.511719 19.746094 37.03125 C 18.761719 36.777344 17.214844 36.179688 16.050781 34.769531 Z "/>
</g>
</svg>
