<svg xmlns="http://www.w3.org/2000/svg" width="1500" height="3000"><path d="M947,1647L260,1094L609,2049Z" fill="#a0a0a0" stroke="#a0a0a0" stroke-width="1.51"/><path d="M260,1094L-109,1290L609,2049Z" fill="#bfbfbf" stroke="#bfbfbf" stroke-width="1.51"/><path d="M947,1647L1377,1265L260,1094Z" fill="#949494" stroke="#949494" stroke-width="1.51"/><path d="M1992,1983L1377,1265L947,1647Z" fill="#494949" stroke="#494949" stroke-width="1.51"/><path d="M-109,1290L-148,2437L609,2049Z" fill="#b0b0b0" stroke="#b0b0b0" stroke-width="1.51"/><path d="M-109,1290L-597,1864L-148,2437Z" fill="#b7b7b7" stroke="#b7b7b7" stroke-width="1.51"/><path d="M609,2049L939,2670L947,1647Z" fill="#727272" stroke="#727272" stroke-width="1.51"/><path d="M139,2742L939,2670L609,2049Z" fill="#757575" stroke="#757575" stroke-width="1.51"/><path d="M-148,2437L139,2742L609,2049Z" fill="#919191" stroke="#919191" stroke-width="1.51"/><path d="M260,1094L-217,269L-109,1290Z" fill="#e7e7e7" stroke="#e7e7e7" stroke-width="1.51"/><path d="M-109,1290L-952,1720L-597,1864Z" fill="#c3c3c3" stroke="#c3c3c3" stroke-width="1.51"/><path d="M1034,154L302,332L260,1094Z" fill="#d4d4d4" stroke="#d4d4d4" stroke-width="1.51"/><path d="M-1136,2661L-583,3118L-148,2437Z" fill="#848484" stroke="#848484" stroke-width="1.51"/><path d="M-583,3118L169,3225L139,2742Z" fill="#777777" stroke="#777777" stroke-width="1.51"/><path d="M-1158,1349L-952,1720L-109,1290Z" fill="#cccccc" stroke="#cccccc" stroke-width="1.51"/><path d="M302,332L-217,269L260,1094Z" fill="#ededed" stroke="#ededed" stroke-width="1.51"/><path d="M939,2670L1687,2403L947,1647Z" fill="#4a4a4a" stroke="#4a4a4a" stroke-width="1.51"/><path d="M1377,1265L1034,154L260,1094Z" fill="#a6a6a6" stroke="#a6a6a6" stroke-width="1.51"/><path d="M302,332L339,-330L-217,269Z" fill="#f7f7f7" stroke="#f7f7f7" stroke-width="1.51"/><path d="M1377,1265L1882,338L1034,154Z" fill="#727272" stroke="#727272" stroke-width="1.51"/><path d="M1992,1983L1975,1183L1377,1265Z" fill="#4a4a4a" stroke="#4a4a4a" stroke-width="1.51"/><path d="M1687,2403L1992,1983L947,1647Z" fill="#343434" stroke="#343434" stroke-width="1.51"/><path d="M-217,269L-1158,1349L-109,1290Z" fill="#e4e4e4" stroke="#e4e4e4" stroke-width="1.51"/><path d="M-583,3118L139,2742L-148,2437Z" fill="#838383" stroke="#838383" stroke-width="1.51"/><path d="M139,2742L169,3225L939,2670Z" fill="#6a6a6a" stroke="#6a6a6a" stroke-width="1.51"/><path d="M939,2670L1885,3189L1687,2403Z" fill="#111111" stroke="#111111" stroke-width="1.51"/><path d="M-1136,2661L-597,1864L-952,1720Z" fill="#adadad" stroke="#adadad" stroke-width="1.51"/><path d="M-1136,2661L-148,2437L-597,1864Z" fill="#9f9f9f" stroke="#9f9f9f" stroke-width="1.51"/><path d="M1975,1183L1882,338L1377,1265Z" fill="#616161" stroke="#616161" stroke-width="1.51"/><path d="M1342,-440L339,-330L1034,154Z" fill="#bababa" stroke="#bababa" stroke-width="1.51"/><path d="M1034,154L339,-330L302,332Z" fill="#dddddd" stroke="#dddddd" stroke-width="1.51"/><path d="M-1158,1349L-1136,2661L-952,1720Z" fill="#b5b5b5" stroke="#b5b5b5" stroke-width="1.51"/><path d="M339,-330L-610,-199L-217,269Z" fill="#ffffff" stroke="#ffffff" stroke-width="1.51"/><path d="M-217,269L-1274,258L-1158,1349Z" fill="#f0f0f0" stroke="#f0f0f0" stroke-width="1.51"/><path d="M1882,338L1631,-124L1034,154Z" fill="#757575" stroke="#757575" stroke-width="1.51"/><path d="M-1158,1349L-1196,3470L-1136,2661Z" fill="#939393" stroke="#939393" stroke-width="1.51"/><path d="M-610,-199L-1274,258L-217,269Z" fill="#fdfdfd" stroke="#fdfdfd" stroke-width="1.51"/><path d="M1687,2403L2376,2589L1992,1983Z" fill="#272727" stroke="#272727" stroke-width="1.51"/><path d="M1401,3555L1885,3189L939,2670Z" fill="#0d0d0d" stroke="#0d0d0d" stroke-width="1.51"/><path d="M1885,3189L2376,2589L1687,2403Z" fill="#121212" stroke="#121212" stroke-width="1.51"/><path d="M1992,1983L2631,1342L1975,1183Z" fill="#494949" stroke="#494949" stroke-width="1.51"/><path d="M1975,1183L2678,135L1882,338Z" fill="#6c6c6c" stroke="#6c6c6c" stroke-width="1.51"/><path d="M2634,1903L2631,1342L1992,1983Z" fill="#3f3f3f" stroke="#3f3f3f" stroke-width="1.51"/><path d="M1882,338L2390,-105L1631,-124Z" fill="#767676" stroke="#767676" stroke-width="1.51"/><path d="M1631,-124L1342,-440L1034,154Z" fill="#878787" stroke="#878787" stroke-width="1.51"/><path d="M296,4026L1401,3555L169,3225Z" fill="#545454" stroke="#545454" stroke-width="1.51"/><path d="M169,3225L1401,3555L939,2670Z" fill="#424242" stroke="#424242" stroke-width="1.51"/><path d="M2376,2589L2634,1903L1992,1983Z" fill="#2e2e2e" stroke="#2e2e2e" stroke-width="1.51"/><path d="M-277,4199L296,4026L169,3225Z" fill="#757575" stroke="#757575" stroke-width="1.51"/><path d="M-277,4199L169,3225L-583,3118Z" fill="#777777" stroke="#777777" stroke-width="1.51"/><path d="M-1136,2661L-1196,3470L-583,3118Z" fill="#777777" stroke="#777777" stroke-width="1.51"/><path d="M-1274,258L-1196,3470L-1158,1349Z" fill="#c0c0c0" stroke="#c0c0c0" stroke-width="1.51"/><path d="M-610,-199L-1202,-411L-1274,258Z" fill="#ffffff" stroke="#ffffff" stroke-width="1.51"/><path d="M339,-330L-192,-866L-610,-199Z" fill="#ffffff" stroke="#ffffff" stroke-width="1.51"/><path d="M247,-1148L-192,-866L339,-330Z" fill="#f9f9f9" stroke="#f9f9f9" stroke-width="1.51"/><path d="M2678,135L2390,-105L1882,338Z" fill="#757575" stroke="#757575" stroke-width="1.51"/><path d="M1631,-124L1636,-1225L1342,-440Z" fill="#777777" stroke="#777777" stroke-width="1.51"/><path d="M-192,-866L-1202,-411L-610,-199Z" fill="#ffffff" stroke="#ffffff" stroke-width="1.51"/><path d="M2795,3360L2678,135L2631,1342Z" fill="#444444" stroke="#444444" stroke-width="1.51"/><path d="M2631,1342L2678,135L1975,1183Z" fill="#626262" stroke="#626262" stroke-width="1.51"/><path d="M-192,-866L-1037,-1267L-1202,-411Z" fill="#ffffff" stroke="#ffffff" stroke-width="1.51"/><path d="M1049,-1383L247,-1148L339,-330Z" fill="#dfdfdf" stroke="#dfdfdf" stroke-width="1.51"/><path d="M1049,-1383L339,-330L1342,-440Z" fill="#b9b9b9" stroke="#b9b9b9" stroke-width="1.51"/><path d="M-1196,3470L-277,4199L-583,3118Z" fill="#777777" stroke="#777777" stroke-width="1.51"/><path d="M1365,4380L1401,3555L296,4026Z" fill="#333333" stroke="#333333" stroke-width="1.51"/><path d="M1365,4380L1702,4228L1401,3555Z" fill="#010201" stroke="#010201" stroke-width="1.51"/><path d="M1401,3555L1702,4228L1885,3189Z" fill="#000000" stroke="#000000" stroke-width="1.51"/><path d="M1885,3189L2795,3360L2376,2589Z" fill="#000000" stroke="#000000" stroke-width="1.51"/><path d="M1702,4228L2795,3360L1885,3189Z" fill="#000000" stroke="#000000" stroke-width="1.51"/><path d="M2376,2589L2795,3360L2634,1903Z" fill="#171717" stroke="#171717" stroke-width="1.51"/><path d="M2634,1903L2795,3360L2631,1342Z" fill="#2d2d2d" stroke="#2d2d2d" stroke-width="1.51"/><path d="M-277,4199L1365,4380L296,4026Z" fill="#616161" stroke="#616161" stroke-width="1.51"/><path d="M1636,-1225L1049,-1383L1342,-440Z" fill="#878787" stroke="#878787" stroke-width="1.51"/><path d="M1636,-1225L1631,-124L2377,-1195Z" fill="#777777" stroke="#777777" stroke-width="1.51"/><path d="M2377,-1195L1631,-124L2390,-105Z" fill="#777777" stroke="#777777" stroke-width="1.51"/><path d="M-277,4199L-940,4270L1365,4380Z" fill="#757575" stroke="#757575" stroke-width="1.51"/><path d="M-1196,3470L-940,4270L-277,4199Z" fill="#777777" stroke="#777777" stroke-width="1.51"/><path d="M247,-1148L-1037,-1267L-192,-866Z" fill="#ffffff" stroke="#ffffff" stroke-width="1.51"/><path d="M1049,-1383L-1037,-1267L247,-1148Z" fill="#fbfbfb" stroke="#fbfbfb" stroke-width="1.51"/><path d="M2678,135L2377,-1195L2390,-105Z" fill="#777777" stroke="#777777" stroke-width="1.51"/><path d="M1636,-1225L2377,-1195L1049,-1383Z" fill="#777777" stroke="#777777" stroke-width="1.51"/><path d="M1365,4380L2893,4276L1702,4228Z" fill="#000000" stroke="#000000" stroke-width="1.51"/><path d="M1702,4228L2893,4276L2795,3360Z" fill="#000000" stroke="#000000" stroke-width="1.51"/><path d="M2795,3360L2893,4276L2678,135Z" fill="#181818" stroke="#181818" stroke-width="1.51"/></svg>